HIERARCHY
ROOT Hips
{
	OFFSET 0.000000 0.000000 0.000000
	CHANNELS 6 Xposition Yposition Zposition Zrotation Yrotation Xrotation 
	JOINT LHipJoint
	{
		OFFSET 0.000000 0.000000 0.000000
		CHANNELS 3 Zrotation Yrotation Xrotation
		JOINT LeftUpLeg
		{
			OFFSET 1.363060 -1.794630 0.839290
			CHANNELS 3 Zrotation Yrotation Xrotation
			JOINT LeftLeg
			{
				OFFSET 2.448110 -6.726130 0.000000
				CHANNELS 3 Zrotation Yrotation Xrotation
				JOINT LeftFoot
				{
					OFFSET 2.562200 -7.039590 0.000000
					CHANNELS 3 Zrotation Yrotation Xrotation
					JOINT LeftToeBase
					{
						OFFSET 0.157640 -0.433110 2.322550
						CHANNELS 3 Zrotation Yrotation Xrotation
						End Site
						{
							OFFSET 0.000000 0.000000 0.000000
						}
					}
				}
			}
		}
	}
	JOINT RHipJoint
	{
		OFFSET 0.000000 0.000000 0.000000
		CHANNELS 3 Zrotation Yrotation Xrotation
		JOINT RightUpLeg
		{
			OFFSET -1.305520 -1.794630 0.839290
			CHANNELS 3 Zrotation Yrotation Xrotation
			JOINT RightLeg
			{
				OFFSET -2.542530 -6.985550 0.000000
				CHANNELS 3 Zrotation Yrotation Xrotation
				JOINT RightFoot
				{
					OFFSET -2.568260 -7.056230 0.000000
					CHANNELS 3 Zrotation Yrotation Xrotation
					JOINT RightToeBase
					{
						OFFSET -0.164730 -0.452590 2.363150
						CHANNELS 3 Zrotation Yrotation Xrotation
						End Site
						{
							OFFSET 0.000000 0.000000 0.000000
						}
					}
				}
			}
		}
	}
	JOINT LowerBack
	{
		OFFSET 0.000000 0.000000 0.000000
		CHANNELS 3 Zrotation Yrotation Xrotation
		JOINT Spine
		{
			OFFSET 0.028270 2.035590 -0.193380
			CHANNELS 3 Zrotation Yrotation Xrotation
			JOINT Spine1
			{
				OFFSET 0.056720 2.048850 -0.042750
				CHANNELS 3 Zrotation Yrotation Xrotation
				JOINT Neck
				{
					OFFSET 0.000000 0.000000 0.000000
					CHANNELS 3 Zrotation Yrotation Xrotation
					JOINT Neck1
					{
						OFFSET -0.054170 1.746240 0.172020
						CHANNELS 3 Zrotation Yrotation Xrotation
						JOINT Head
						{
							OFFSET 0.104070 1.761360 -0.123970
							CHANNELS 3 Zrotation Yrotation Xrotation
							End Site
							{
								OFFSET 0.000000 0.000000 0.000000
							}
						}
					}
				}
				JOINT LeftShoulder
				{
					OFFSET 0.000000 0.000000 0.000000
					CHANNELS 3 Zrotation Yrotation Xrotation
					JOINT LeftArm
					{
						OFFSET 3.362410 1.200890 -0.311210
						CHANNELS 3 Zrotation Yrotation Xrotation
						JOINT LeftForeArm
						{
							OFFSET 4.983000 -0.000000 -0.000000
							CHANNELS 3 Zrotation Yrotation Xrotation
							JOINT LeftHand
							{
								OFFSET 3.483560 -0.000000 -0.000000
								CHANNELS 3 Zrotation Yrotation Xrotation
								JOINT LeftFingerBase
								{
									OFFSET 0.000000 0.000000 0.000000
									CHANNELS 3 Zrotation Yrotation Xrotation
									JOINT LeftHandIndex1
									{
										OFFSET 0.715260 -0.000000 -0.000000
										CHANNELS 3 Zrotation Yrotation Xrotation
										End Site
										{
											OFFSET 0.000000 0.000000 0.000000
										}
									}
								}
								JOINT LThumb
								{
									OFFSET 0.000000 0.000000 0.000000
									CHANNELS 3 Zrotation Yrotation Xrotation
									End Site
									{
										OFFSET 0.000000 0.000000 0.000000
									}
								}
							}
						}
					}
				}
				JOINT RightShoulder
				{
					OFFSET 0.000000 0.000000 0.000000
					CHANNELS 3 Zrotation Yrotation Xrotation
					JOINT RightArm
					{
						OFFSET -3.136600 1.374050 -0.404650
						CHANNELS 3 Zrotation Yrotation Xrotation
						JOINT RightForeArm
						{
							OFFSET -5.241900 -0.000000 -0.000000
							CHANNELS 3 Zrotation Yrotation Xrotation
							JOINT RightHand
							{
								OFFSET -3.444170 -0.000000 -0.000000
								CHANNELS 3 Zrotation Yrotation Xrotation
								JOINT RightFingerBase
								{
									OFFSET 0.000000 0.000000 0.000000
									CHANNELS 3 Zrotation Yrotation Xrotation
									JOINT RightHandIndex1
									{
										OFFSET -0.622530 -0.000000 -0.000000
										CHANNELS 3 Zrotation Yrotation Xrotation
										End Site
										{
											OFFSET 0.000000 0.000000 0.000000
										}
									}
								}
								JOINT RThumb
								{
									OFFSET 0.000000 0.000000 0.000000
									CHANNELS 3 Zrotation Yrotation Xrotation
									End Site
									{
										OFFSET 0.000000 0.000000 0.000000
									}
								}
							}
						}
					}
				}
			}
		}
	}
}
MOTION
Frames: 7
Frame Time: 0.008333
8.423557 16.238608 2.261225 147.971553 -84.184790 -111.640454 -6.638640 0.200520 3.315267 -15.272059 -12.133596 -66.957892 -3.486368 0.982638 27.683601 0.699398 1.956768 -5.045986 0.569400 -0.000000 -38.774400 12.757357 -2.788505 -2.033908 3.276071 -5.061283 -7.871985 0.103143 -1.740119 24.543759 -1.093782 4.126794 34.018437 3.203500 0.000000 -58.995401 -8.765194 1.179929 1.415118 -2.745275 1.538213 -2.385143 -4.792064 1.504966 1.329367 5.661978 0.769437 2.401740 -2.327434 -0.292438 2.326181 0.000000 0.000000 0.000000 -0.347630 4.007277 2.484891 -44.770715 21.369951 14.767771 -4.279822 -20.787831 -0.013622 -1.670518 3.947423 -0.053737 -0.152394 -0.105035 -0.000000 0.000000 0.000000 0.000000 0.000000 0.000000 0.000000 6.699210 3.579327 -2.296245 68.080035 48.866515 27.584879 0.568317 78.395533 -0.009909 -2.147466 9.809811 -0.196007 0.037152 -0.466519 -0.000000 0.000000 0.000000 0.000000 0.000000 0.000000 0.000000 
8.168167 16.107475 2.234059 145.183484 -84.215555 -109.680278 -6.587656 0.227018 3.037705 -15.817776 -12.196928 -67.551893 -3.079961 1.541324 32.569623 0.731208 1.966106 -5.548354 0.492900 0.000000 -36.083500 13.000120 -2.816018 -2.274169 2.710253 -6.605809 -7.541683 0.055390 -1.874910 26.901516 -1.165689 3.488874 33.137219 2.785100 0.000000 -58.322899 -9.125951 1.157106 1.816460 -2.854262 1.520057 -2.318696 -4.931998 1.492876 1.250617 5.670358 1.097660 2.559590 -2.441046 -0.300766 2.358852 0.000000 0.000000 0.000000 -0.147118 3.817212 2.481025 -44.051133 21.677793 15.512581 -4.323683 -20.962319 -0.014080 -2.012133 3.803407 -0.063647 -0.152709 -0.110124 -0.000000 0.000000 0.000000 0.000000 0.000000 0.000000 0.000000 7.220441 3.851058 -2.294017 67.559700 48.890949 26.939462 0.554190 78.415932 -0.011241 -2.219097 9.910671 -0.204241 0.033490 -0.469952 -0.000000 0.000000 0.000000 0.000000 0.000000 0.000000 0.000000 
7.919132 15.986653 2.206790 142.442187 -84.149549 -107.825609 -6.523626 0.226314 2.721742 -16.424977 -12.174423 -67.824789 -2.686240 2.007716 37.245569 0.791963 2.051331 -6.412080 0.391500 -0.000000 -33.163800 13.255163 -2.798703 -2.551880 1.966974 -8.200565 -7.305300 -0.001091 -2.026865 29.479849 -1.245566 2.666214 32.057985 2.260000 0.000000 -57.975600 -9.503780 1.154254 2.311686 -2.973245 1.518379 -2.229570 -5.091523 1.498488 1.180131 5.668339 1.454909 2.749346 -2.586648 -0.310941 2.394545 0.000000 0.000000 0.000000 -0.077123 3.666366 2.477588 -43.301312 21.622972 16.078524 -4.385710 -20.804223 -0.014685 -2.427204 3.635569 -0.074559 -0.153380 -0.114532 -0.000000 0.000000 0.000000 0.000000 0.000000 0.000000 0.000000 7.858978 4.130366 -2.308418 67.166990 48.829542 26.280550 0.548768 78.231742 -0.012593 -2.295369 10.064336 -0.214076 0.029679 -0.472478 -0.000000 0.000000 0.000000 0.000000 0.000000 0.000000 0.000000 
7.676674 15.879241 2.179985 139.982162 -83.989990 -106.277011 -6.452507 0.212708 2.383639 -17.081850 -12.073275 -67.760195 -2.335180 2.377935 41.539472 0.881582 2.227993 -7.615355 0.267200 -0.000000 -30.530100 13.513264 -2.732867 -2.855966 1.074899 -9.757689 -7.195794 -0.066031 -2.198190 32.270262 -1.334873 1.638063 30.772618 1.628300 -0.000001 -57.830300 -9.889295 1.177024 2.878570 -3.097757 1.538620 -2.123415 -5.262120 1.526767 1.117214 5.642257 1.838307 2.965976 -2.757516 -0.322454 2.432040 0.000000 0.000000 0.000000 -0.122626 3.572286 2.477183 -42.597197 21.121870 16.296871 -4.469567 -20.204455 -0.015349 -2.858540 3.458376 -0.084476 -0.155115 -0.117297 -0.000000 0.000000 0.000000 0.000000 0.000000 0.000000 0.000000 8.561874 4.414990 -2.348227 66.957514 48.628210 25.589945 0.550853 77.839909 -0.013970 -2.376380 10.259496 -0.225410 0.025716 -0.473911 -0.000000 0.000000 0.000000 0.000000 0.000000 0.000000 0.000000 
7.440707 15.788078 2.154227 137.972243 -83.738766 -105.175416 -6.377871 0.200308 2.033949 -17.782420 -11.904122 -67.354811 -2.046242 2.658932 45.331761 1.000264 2.505490 -9.128140 0.115601 0.000000 -28.451600 13.767281 -2.616843 -3.173353 0.066455 -11.198132 -7.241249 -0.139005 -2.391100 35.248192 -1.435229 0.408325 29.294849 0.909800 -0.000000 -57.760001 -10.274742 1.228386 3.496835 -3.224080 1.583923 -2.003932 -5.438267 1.580571 1.066739 5.584881 2.228633 3.195316 -2.950424 -0.334888 2.467685 0.000000 0.000000 0.000000 -0.297046 3.565550 2.479383 -41.958379 20.104586 16.075519 -4.574715 -19.116384 -0.015969 -3.232577 3.313787 -0.092195 -0.158451 -0.117559 -0.000000 0.000000 0.000000 0.000000 0.000000 0.000000 0.000000 9.302616 4.686572 -2.415363 66.957422 48.277675 24.877375 0.559889 77.230909 -0.015443 -2.482733 10.481690 -0.240041 0.022096 -0.473907 -0.000000 0.000000 0.000000 0.000000 0.000000 0.000000 0.000000 
7.210624 15.715099 2.130369 136.554594 -83.411504 -104.635128 -6.307081 0.195327 1.681284 -18.502540 -11.671031 -66.633421 -1.826155 2.862233 48.556455 1.146694 2.880945 -10.897172 -0.071200 0.000000 -27.085200 14.005682 -2.457638 -3.486560 -0.996303 -12.446639 -7.469912 -0.218986 -2.607318 38.377424 -1.547813 -1.008498 27.646788 0.131700 0.000000 -57.614400 -10.640130 1.310698 4.139565 -3.345960 1.657003 -1.879488 -5.616174 1.661944 1.022130 5.490860 2.620155 3.433428 -3.159571 -0.347884 2.501391 0.000000 0.000000 0.000000 -0.621633 3.617530 2.480640 -41.396299 18.609055 15.252950 -4.697676 -17.544023 -0.016385 -3.453068 3.254004 -0.096914 -0.163647 -0.114220 -0.000000 0.000000 0.000000 0.000000 0.000000 0.000000 0.000000 10.045808 4.941558 -2.505632 67.175907 47.746416 24.126849 0.574615 76.405976 -0.017074 -2.632130 10.717541 -0.259568 0.019207 -0.472351 -0.000000 0.000000 0.000000 0.000000 0.000000 0.000000 0.000000 
6.985698 15.661342 2.109464 135.810957 -83.031067 -104.715808 -6.247562 0.196508 1.330754 -19.205713 -11.376706 -65.632455 -1.672791 2.998347 51.183869 1.319193 3.347954 -12.850397 -0.302000 -0.000000 -26.453500 14.216941 -2.267017 -3.780732 -2.040229 -13.446996 -7.903234 -0.305244 -2.847899 41.612885 -1.673110 -2.580538 25.860847 -0.669500 0.000000 -57.253600 -10.961002 1.424197 4.784503 -3.455588 1.759026 -1.751155 -5.787889 1.772043 0.997393 5.355934 2.996494 3.655372 -3.377486 -0.360709 2.527211 0.000000 0.000000 0.000000 -1.081399 3.823394 2.474110 -40.937672 16.483489 13.759057 -4.825232 -15.403110 -0.016241 -3.377791 3.297900 -0.095428 -0.170070 -0.105417 -0.000000 0.000000 0.000000 0.000000 0.000000 0.000000 0.000000 10.751537 5.160938 -2.625490 67.613593 47.038178 23.330596 0.592748 75.365348 -0.018938 -2.843772 10.959662 -0.286190 0.017243 -0.469030 -0.000000 0.000000 0.000000 0.000000 0.000000 0.000000 0.000000 
